<svg width="274" height="75" viewBox="0 0 274 75" fill="none" xmlns="http://www.w3.org/2000/svg">
<mask id="path-1-outside-1_16_70" maskUnits="userSpaceOnUse" x="102" y="17" width="151" height="40" fill="black">
<rect fill="white" x="102" y="17" width="151" height="40"/>
<path d="M121.322 24.04H112.394V35.992H120.938V39.976H112.394V51.16L117.818 51.88V55H103.178V52.12L107.642 51.16V24.28L103.178 23.32V20.44H125.738V31H121.946L121.322 24.04ZM137.547 55.48C135.659 55.48 134.075 55.176 132.795 54.568C131.515 53.96 130.491 53.112 129.723 52.024C128.955 50.904 128.395 49.592 128.043 48.088C127.723 46.552 127.563 44.856 127.563 43C127.563 41.144 127.723 39.464 128.043 37.96C128.395 36.424 128.955 35.112 129.723 34.024C130.491 32.904 131.515 32.04 132.795 31.432C134.075 30.824 135.659 30.52 137.547 30.52C139.435 30.52 141.019 30.824 142.299 31.432C143.579 32.04 144.603 32.904 145.371 34.024C146.139 35.112 146.683 36.424 147.003 37.96C147.355 39.464 147.531 41.144 147.531 43C147.531 44.856 147.355 46.552 147.003 48.088C146.683 49.592 146.139 50.904 145.371 52.024C144.603 53.112 143.579 53.96 142.299 54.568C141.019 55.176 139.435 55.48 137.547 55.48ZM137.547 52.6C138.635 52.6 139.499 52.328 140.139 51.784C140.811 51.24 141.307 50.52 141.627 49.624C141.979 48.696 142.203 47.672 142.299 46.552C142.395 45.4 142.443 44.216 142.443 43C142.443 41.816 142.395 40.648 142.299 39.496C142.203 38.344 141.979 37.32 141.627 36.424C141.307 35.496 140.811 34.76 140.139 34.216C139.499 33.672 138.635 33.4 137.547 33.4C136.427 33.4 135.547 33.672 134.907 34.216C134.267 34.76 133.771 35.496 133.419 36.424C133.099 37.32 132.891 38.344 132.795 39.496C132.699 40.648 132.651 41.816 132.651 43C132.651 44.216 132.699 45.4 132.795 46.552C132.891 47.672 133.099 48.696 133.419 49.624C133.771 50.52 134.267 51.24 134.907 51.784C135.547 52.328 136.427 52.6 137.547 52.6ZM166.109 34.888C164.765 34.888 163.645 34.968 162.749 35.128C161.853 35.288 161.133 35.608 160.589 36.088C160.045 36.568 159.645 37.224 159.389 38.056C159.165 38.888 159.053 39.976 159.053 41.32V51.256L164.045 51.88V55H150.893V52.216L154.493 51.256V34.84L150.845 33.88V31H157.853L158.813 34.84C159.357 33.368 160.301 32.28 161.645 31.576C162.989 30.872 164.477 30.52 166.109 30.52V34.888ZM167.608 52.12L171.208 51.16V22.6L167.56 21.64V18.76H175.768V40.936L183.592 31H189.928V33.88L185.656 34.6L180.664 40.36L187.912 51.16L191.608 52.12V55H185.272L177.688 43.768L175.768 46.024V51.16L178.888 52.12V55H167.608V52.12ZM201.275 55.48C200.475 55.48 199.627 55.368 198.731 55.144C197.867 54.952 197.067 54.6 196.331 54.088C195.595 53.544 194.987 52.824 194.507 51.928C194.027 51 193.787 49.832 193.787 48.424C193.787 47.4 193.947 46.472 194.267 45.64C194.587 44.776 195.099 44.04 195.803 43.432C196.507 42.824 197.419 42.344 198.539 41.992C199.691 41.608 201.099 41.368 202.763 41.272L207.755 41.032V38.872C207.755 37.496 207.483 36.328 206.939 35.368C206.395 34.376 205.371 33.88 203.867 33.88C203.035 33.88 202.331 34.024 201.755 34.312C201.179 34.6 200.699 34.984 200.315 35.464C199.963 35.944 199.691 36.488 199.499 37.096C199.339 37.672 199.259 38.248 199.259 38.824H195.179V31H198.299L199.259 34.024H199.451C200.091 32.776 200.955 31.88 202.043 31.336C203.131 30.792 204.395 30.52 205.835 30.52C207.883 30.52 209.467 31.032 210.587 32.056C211.739 33.08 212.315 34.728 212.315 37V51.16L215.915 52.12V55H208.715L207.755 51.544C207.499 52.376 207.115 53.048 206.603 53.56C206.091 54.072 205.531 54.472 204.923 54.76C204.315 55.048 203.675 55.24 203.003 55.336C202.363 55.432 201.787 55.48 201.275 55.48ZM202.571 52.12C203.531 52.12 204.347 51.928 205.019 51.544C205.691 51.128 206.219 50.616 206.603 50.008C207.019 49.368 207.307 48.664 207.467 47.896C207.659 47.096 207.755 46.312 207.755 45.544V43.528L203.483 43.768C202.459 43.832 201.627 43.992 200.987 44.248C200.347 44.504 199.835 44.84 199.451 45.256C199.067 45.64 198.795 46.088 198.635 46.6C198.507 47.08 198.443 47.592 198.443 48.136C198.443 48.936 198.571 49.592 198.827 50.104C199.083 50.616 199.403 51.032 199.787 51.352C200.171 51.64 200.603 51.848 201.083 51.976C201.595 52.072 202.091 52.12 202.571 52.12ZM221.819 52.024L220.859 55H218.171V47.56H222.299C222.299 49.256 222.715 50.488 223.547 51.256C224.411 51.992 225.419 52.36 226.571 52.36C227.435 52.36 228.251 52.136 229.019 51.688C229.787 51.208 230.171 50.456 230.171 49.432C230.171 48.6 229.883 47.944 229.307 47.464C228.731 46.952 228.011 46.504 227.147 46.12C226.315 45.736 225.403 45.352 224.411 44.968C223.419 44.584 222.491 44.088 221.627 43.48C220.795 42.872 220.091 42.104 219.515 41.176C218.939 40.216 218.651 38.984 218.651 37.48C218.651 36.232 218.843 35.176 219.227 34.312C219.643 33.416 220.171 32.696 220.811 32.152C221.451 31.576 222.155 31.16 222.923 30.904C223.723 30.648 224.507 30.52 225.275 30.52C225.819 30.52 226.347 30.584 226.859 30.712C227.371 30.84 227.835 31.048 228.251 31.336C228.699 31.624 229.067 31.992 229.355 32.44C229.643 32.888 229.835 33.416 229.931 34.024H230.123L231.083 31H233.771V38.488H229.691C229.659 36.984 229.291 35.8 228.587 34.936C227.883 34.072 226.923 33.64 225.707 33.64C224.843 33.64 224.139 33.896 223.595 34.408C223.083 34.92 222.827 35.608 222.827 36.472C222.827 37.368 223.115 38.072 223.691 38.584C224.267 39.096 224.971 39.56 225.803 39.976C226.667 40.36 227.595 40.744 228.587 41.128C229.611 41.512 230.539 42.008 231.371 42.616C232.235 43.192 232.955 43.944 233.531 44.872C234.107 45.768 234.395 46.952 234.395 48.424C234.395 49.64 234.187 50.696 233.771 51.592C233.355 52.488 232.811 53.224 232.139 53.8C231.499 54.376 230.747 54.792 229.883 55.048C229.051 55.336 228.203 55.48 227.339 55.48C226.763 55.48 226.171 55.416 225.563 55.288C224.987 55.16 224.459 54.952 223.979 54.664C223.499 54.376 223.083 54.024 222.731 53.608C222.379 53.16 222.139 52.632 222.011 52.024H221.819ZM236.842 31.96L240.442 31L241.402 24.712H245.002V31H249.514V34.504H245.002V47.56C245.002 49.032 245.178 50.104 245.53 50.776C245.882 51.448 246.458 51.784 247.258 51.784C247.61 51.784 248.058 51.736 248.602 51.64C249.146 51.544 249.658 51.416 250.138 51.256L251.146 53.944C250.666 54.392 249.962 54.76 249.034 55.048C248.138 55.336 247.194 55.48 246.202 55.48C244.186 55.48 242.714 54.856 241.786 53.608C240.89 52.328 240.442 50.312 240.442 47.56V34.504H236.842V31.96Z"/>
</mask>
<path d="M121.322 24.04H112.394V35.992H120.938V39.976H112.394V51.16L117.818 51.88V55H103.178V52.12L107.642 51.16V24.28L103.178 23.32V20.44H125.738V31H121.946L121.322 24.04ZM137.547 55.48C135.659 55.48 134.075 55.176 132.795 54.568C131.515 53.96 130.491 53.112 129.723 52.024C128.955 50.904 128.395 49.592 128.043 48.088C127.723 46.552 127.563 44.856 127.563 43C127.563 41.144 127.723 39.464 128.043 37.96C128.395 36.424 128.955 35.112 129.723 34.024C130.491 32.904 131.515 32.04 132.795 31.432C134.075 30.824 135.659 30.52 137.547 30.52C139.435 30.52 141.019 30.824 142.299 31.432C143.579 32.04 144.603 32.904 145.371 34.024C146.139 35.112 146.683 36.424 147.003 37.96C147.355 39.464 147.531 41.144 147.531 43C147.531 44.856 147.355 46.552 147.003 48.088C146.683 49.592 146.139 50.904 145.371 52.024C144.603 53.112 143.579 53.96 142.299 54.568C141.019 55.176 139.435 55.48 137.547 55.48ZM137.547 52.6C138.635 52.6 139.499 52.328 140.139 51.784C140.811 51.24 141.307 50.52 141.627 49.624C141.979 48.696 142.203 47.672 142.299 46.552C142.395 45.4 142.443 44.216 142.443 43C142.443 41.816 142.395 40.648 142.299 39.496C142.203 38.344 141.979 37.32 141.627 36.424C141.307 35.496 140.811 34.76 140.139 34.216C139.499 33.672 138.635 33.4 137.547 33.4C136.427 33.4 135.547 33.672 134.907 34.216C134.267 34.76 133.771 35.496 133.419 36.424C133.099 37.32 132.891 38.344 132.795 39.496C132.699 40.648 132.651 41.816 132.651 43C132.651 44.216 132.699 45.4 132.795 46.552C132.891 47.672 133.099 48.696 133.419 49.624C133.771 50.52 134.267 51.24 134.907 51.784C135.547 52.328 136.427 52.6 137.547 52.6ZM166.109 34.888C164.765 34.888 163.645 34.968 162.749 35.128C161.853 35.288 161.133 35.608 160.589 36.088C160.045 36.568 159.645 37.224 159.389 38.056C159.165 38.888 159.053 39.976 159.053 41.32V51.256L164.045 51.88V55H150.893V52.216L154.493 51.256V34.84L150.845 33.88V31H157.853L158.813 34.84C159.357 33.368 160.301 32.28 161.645 31.576C162.989 30.872 164.477 30.52 166.109 30.52V34.888ZM167.608 52.12L171.208 51.16V22.6L167.56 21.64V18.76H175.768V40.936L183.592 31H189.928V33.88L185.656 34.6L180.664 40.36L187.912 51.16L191.608 52.12V55H185.272L177.688 43.768L175.768 46.024V51.16L178.888 52.12V55H167.608V52.12ZM201.275 55.48C200.475 55.48 199.627 55.368 198.731 55.144C197.867 54.952 197.067 54.6 196.331 54.088C195.595 53.544 194.987 52.824 194.507 51.928C194.027 51 193.787 49.832 193.787 48.424C193.787 47.4 193.947 46.472 194.267 45.64C194.587 44.776 195.099 44.04 195.803 43.432C196.507 42.824 197.419 42.344 198.539 41.992C199.691 41.608 201.099 41.368 202.763 41.272L207.755 41.032V38.872C207.755 37.496 207.483 36.328 206.939 35.368C206.395 34.376 205.371 33.88 203.867 33.88C203.035 33.88 202.331 34.024 201.755 34.312C201.179 34.6 200.699 34.984 200.315 35.464C199.963 35.944 199.691 36.488 199.499 37.096C199.339 37.672 199.259 38.248 199.259 38.824H195.179V31H198.299L199.259 34.024H199.451C200.091 32.776 200.955 31.88 202.043 31.336C203.131 30.792 204.395 30.52 205.835 30.52C207.883 30.52 209.467 31.032 210.587 32.056C211.739 33.08 212.315 34.728 212.315 37V51.16L215.915 52.12V55H208.715L207.755 51.544C207.499 52.376 207.115 53.048 206.603 53.56C206.091 54.072 205.531 54.472 204.923 54.76C204.315 55.048 203.675 55.24 203.003 55.336C202.363 55.432 201.787 55.48 201.275 55.48ZM202.571 52.12C203.531 52.12 204.347 51.928 205.019 51.544C205.691 51.128 206.219 50.616 206.603 50.008C207.019 49.368 207.307 48.664 207.467 47.896C207.659 47.096 207.755 46.312 207.755 45.544V43.528L203.483 43.768C202.459 43.832 201.627 43.992 200.987 44.248C200.347 44.504 199.835 44.84 199.451 45.256C199.067 45.64 198.795 46.088 198.635 46.6C198.507 47.08 198.443 47.592 198.443 48.136C198.443 48.936 198.571 49.592 198.827 50.104C199.083 50.616 199.403 51.032 199.787 51.352C200.171 51.64 200.603 51.848 201.083 51.976C201.595 52.072 202.091 52.12 202.571 52.12ZM221.819 52.024L220.859 55H218.171V47.56H222.299C222.299 49.256 222.715 50.488 223.547 51.256C224.411 51.992 225.419 52.36 226.571 52.36C227.435 52.36 228.251 52.136 229.019 51.688C229.787 51.208 230.171 50.456 230.171 49.432C230.171 48.6 229.883 47.944 229.307 47.464C228.731 46.952 228.011 46.504 227.147 46.12C226.315 45.736 225.403 45.352 224.411 44.968C223.419 44.584 222.491 44.088 221.627 43.48C220.795 42.872 220.091 42.104 219.515 41.176C218.939 40.216 218.651 38.984 218.651 37.48C218.651 36.232 218.843 35.176 219.227 34.312C219.643 33.416 220.171 32.696 220.811 32.152C221.451 31.576 222.155 31.16 222.923 30.904C223.723 30.648 224.507 30.52 225.275 30.52C225.819 30.52 226.347 30.584 226.859 30.712C227.371 30.84 227.835 31.048 228.251 31.336C228.699 31.624 229.067 31.992 229.355 32.44C229.643 32.888 229.835 33.416 229.931 34.024H230.123L231.083 31H233.771V38.488H229.691C229.659 36.984 229.291 35.8 228.587 34.936C227.883 34.072 226.923 33.64 225.707 33.64C224.843 33.64 224.139 33.896 223.595 34.408C223.083 34.92 222.827 35.608 222.827 36.472C222.827 37.368 223.115 38.072 223.691 38.584C224.267 39.096 224.971 39.56 225.803 39.976C226.667 40.36 227.595 40.744 228.587 41.128C229.611 41.512 230.539 42.008 231.371 42.616C232.235 43.192 232.955 43.944 233.531 44.872C234.107 45.768 234.395 46.952 234.395 48.424C234.395 49.64 234.187 50.696 233.771 51.592C233.355 52.488 232.811 53.224 232.139 53.8C231.499 54.376 230.747 54.792 229.883 55.048C229.051 55.336 228.203 55.48 227.339 55.48C226.763 55.48 226.171 55.416 225.563 55.288C224.987 55.16 224.459 54.952 223.979 54.664C223.499 54.376 223.083 54.024 222.731 53.608C222.379 53.16 222.139 52.632 222.011 52.024H221.819ZM236.842 31.96L240.442 31L241.402 24.712H245.002V31H249.514V34.504H245.002V47.56C245.002 49.032 245.178 50.104 245.53 50.776C245.882 51.448 246.458 51.784 247.258 51.784C247.61 51.784 248.058 51.736 248.602 51.64C249.146 51.544 249.658 51.416 250.138 51.256L251.146 53.944C250.666 54.392 249.962 54.76 249.034 55.048C248.138 55.336 247.194 55.48 246.202 55.48C244.186 55.48 242.714 54.856 241.786 53.608C240.89 52.328 240.442 50.312 240.442 47.56V34.504H236.842V31.96Z" fill="#023020"/>
<path d="M121.322 24.04L122.318 23.9507L122.236 23.04H121.322V24.04ZM112.394 24.04V23.04H111.394V24.04H112.394ZM112.394 35.992H111.394V36.992H112.394V35.992ZM120.938 35.992H121.938V34.992H120.938V35.992ZM120.938 39.976V40.976H121.938V39.976H120.938ZM112.394 39.976V38.976H111.394V39.976H112.394ZM112.394 51.16H111.394V52.036L112.262 52.1513L112.394 51.16ZM117.818 51.88H118.818V51.004L117.949 50.8887L117.818 51.88ZM117.818 55V56H118.818V55H117.818ZM103.178 55H102.178V56H103.178V55ZM103.178 52.12L102.968 51.1424L102.178 51.3122V52.12H103.178ZM107.642 51.16L107.852 52.1376L108.642 51.9678V51.16H107.642ZM107.642 24.28H108.642V23.4722L107.852 23.3023L107.642 24.28ZM103.178 23.32H102.178V24.1278L102.968 24.2976L103.178 23.32ZM103.178 20.44V19.44H102.178V20.44H103.178ZM125.738 20.44H126.738V19.44H125.738V20.44ZM125.738 31V32H126.738V31H125.738ZM121.946 31L120.95 31.0893L121.031 32H121.946V31ZM121.322 23.04H112.394V25.04H121.322V23.04ZM111.394 24.04V35.992H113.394V24.04H111.394ZM112.394 36.992H120.938V34.992H112.394V36.992ZM119.938 35.992V39.976H121.938V35.992H119.938ZM120.938 38.976H112.394V40.976H120.938V38.976ZM111.394 39.976V51.16H113.394V39.976H111.394ZM112.262 52.1513L117.686 52.8713L117.949 50.8887L112.525 50.1687L112.262 52.1513ZM116.818 51.88V55H118.818V51.88H116.818ZM117.818 54H103.178V56H117.818V54ZM104.178 55V52.12H102.178V55H104.178ZM103.388 53.0976L107.852 52.1376L107.432 50.1824L102.968 51.1424L103.388 53.0976ZM108.642 51.16V24.28H106.642V51.16H108.642ZM107.852 23.3023L103.388 22.3424L102.968 24.2976L107.432 25.2576L107.852 23.3023ZM104.178 23.32V20.44H102.178V23.32H104.178ZM103.178 21.44H125.738V19.44H103.178V21.44ZM124.738 20.44V31H126.738V20.44H124.738ZM125.738 30H121.946V32H125.738V30ZM122.942 30.9107L122.318 23.9507L120.326 24.1293L120.95 31.0893L122.942 30.9107ZM132.795 54.568L132.366 55.4713L132.795 54.568ZM129.723 52.024L128.898 52.5896L128.906 52.6007L129.723 52.024ZM128.043 48.088L127.064 48.292L127.066 48.304L127.069 48.3159L128.043 48.088ZM128.043 37.96L127.068 37.7366L127.066 37.7442L127.065 37.7519L128.043 37.96ZM129.723 34.024L130.54 34.6007L130.548 34.5895L129.723 34.024ZM132.795 31.432L133.224 32.3353H133.224L132.795 31.432ZM142.299 31.432L141.87 32.3353L142.299 31.432ZM145.371 34.024L144.546 34.5896L144.554 34.6007L145.371 34.024ZM147.003 37.96L146.024 38.164L146.026 38.176L146.029 38.1879L147.003 37.96ZM147.003 48.088L146.028 47.8646L146.026 47.8722L146.025 47.8799L147.003 48.088ZM145.371 52.024L146.188 52.6007L146.196 52.5895L145.371 52.024ZM142.299 54.568L141.87 53.6647L142.299 54.568ZM140.139 51.784L139.51 51.0068L139.5 51.0143L139.491 51.0221L140.139 51.784ZM141.627 49.624L140.692 49.2693L140.688 49.2785L140.685 49.2877L141.627 49.624ZM142.299 46.552L143.295 46.6374L143.295 46.635L142.299 46.552ZM142.299 39.496L141.302 39.579L142.299 39.496ZM141.627 36.424L140.682 36.75L140.688 36.77L140.696 36.7896L141.627 36.424ZM140.139 34.216L139.491 34.9779L139.5 34.9857L139.51 34.9932L140.139 34.216ZM134.907 34.216L134.259 33.4541L134.907 34.216ZM133.419 36.424L132.484 36.0693L132.48 36.0785L132.477 36.0877L133.419 36.424ZM132.795 46.552L131.798 46.635L131.799 46.6374L132.795 46.552ZM133.419 49.624L132.474 49.95L132.48 49.97L132.488 49.9897L133.419 49.624ZM134.907 51.784L134.259 52.5459L134.907 51.784ZM137.547 54.48C135.76 54.48 134.333 54.1916 133.224 53.6647L132.366 55.4713C133.817 56.1604 135.557 56.48 137.547 56.48V54.48ZM133.224 53.6647C132.089 53.1256 131.202 52.3859 130.54 51.4473L128.906 52.6007C129.779 53.8381 130.941 54.7944 132.366 55.4713L133.224 53.6647ZM130.548 51.4585C129.859 50.4539 129.344 49.2598 129.017 47.8601L127.069 48.3159C127.446 49.9242 128.051 51.3541 128.898 52.5895L130.548 51.4585ZM129.022 47.884C128.718 46.426 128.563 44.7995 128.563 43H126.563C126.563 44.9125 126.728 46.678 127.064 48.292L129.022 47.884ZM128.563 43C128.563 41.2001 128.718 39.5914 129.021 38.1681L127.065 37.7519C126.728 39.3366 126.563 41.0879 126.563 43H128.563ZM129.018 38.1834C129.346 36.7514 129.859 35.5647 130.54 34.6007L128.906 33.4473C128.05 34.6593 127.444 36.0965 127.068 37.7366L129.018 38.1834ZM130.548 34.5895C131.211 33.6215 132.096 32.871 133.224 32.3353L132.366 30.5287C130.934 31.209 129.77 32.1865 128.898 33.4585L130.548 34.5895ZM133.224 32.3353C134.333 31.8084 135.76 31.52 137.547 31.52V29.52C135.557 29.52 133.817 29.8396 132.366 30.5287L133.224 32.3353ZM137.547 31.52C139.333 31.52 140.761 31.8084 141.87 32.3353L142.728 30.5287C141.277 29.8396 139.536 29.52 137.547 29.52V31.52ZM141.87 32.3353C142.998 32.871 143.882 33.6215 144.546 34.5895L146.196 33.4585C145.323 32.1865 144.16 31.209 142.728 30.5287L141.87 32.3353ZM144.554 34.6007C145.23 35.5587 145.727 36.7384 146.024 38.164L147.982 37.756C147.639 36.1096 147.048 34.6653 146.188 33.4473L144.554 34.6007ZM146.029 38.1879C146.361 39.604 146.531 41.2059 146.531 43H148.531C148.531 41.0821 148.349 39.324 147.977 37.7321L146.029 38.1879ZM146.531 43C146.531 44.7937 146.361 46.4135 146.028 47.8646L147.978 48.3114C148.349 46.6905 148.531 44.9183 148.531 43H146.531ZM146.025 47.8799C145.728 49.2727 145.231 50.4598 144.546 51.4585L146.196 52.5895C147.047 51.3482 147.637 49.9113 147.981 48.2961L146.025 47.8799ZM144.554 51.4473C143.891 52.3859 143.005 53.1256 141.87 53.6647L142.728 55.4713C144.153 54.7944 145.314 53.8381 146.188 52.6007L144.554 51.4473ZM141.87 53.6647C140.761 54.1916 139.333 54.48 137.547 54.48V56.48C139.536 56.48 141.277 56.1604 142.728 55.4713L141.87 53.6647ZM137.547 53.6C138.801 53.6 139.918 53.2843 140.787 52.5459L139.491 51.0221C139.08 51.3717 138.469 51.6 137.547 51.6V53.6ZM140.768 52.5612C141.597 51.8903 142.193 51.0113 142.569 49.9603L140.685 49.2877C140.42 50.0287 140.025 50.5897 139.51 51.0068L140.768 52.5612ZM142.562 49.9787C142.951 48.9536 143.192 47.8376 143.295 46.6374L141.303 46.4666C141.213 47.5064 141.007 48.4384 140.692 49.2693L142.562 49.9787ZM143.295 46.635C143.394 45.454 143.443 44.2423 143.443 43H141.443C141.443 44.1897 141.396 45.346 141.302 46.469L143.295 46.635ZM143.443 43C143.443 41.789 143.394 40.5932 143.295 39.413L141.302 39.579C141.396 40.7028 141.443 41.843 141.443 43H143.443ZM143.295 39.413C143.193 38.1828 142.951 37.0609 142.558 36.0583L140.696 36.7896C141.006 37.5791 141.213 38.5052 141.302 39.579L143.295 39.413ZM142.572 36.098C142.2 35.0175 141.605 34.1159 140.768 33.4388L139.51 34.9932C140.017 35.4041 140.414 35.9745 140.682 36.75L142.572 36.098ZM140.787 33.4541C139.918 32.7157 138.801 32.4 137.547 32.4V34.4C138.469 34.4 139.08 34.6283 139.491 34.9779L140.787 33.4541ZM137.547 32.4C136.269 32.4 135.133 32.7116 134.259 33.4541L135.555 34.9779C135.961 34.6324 136.584 34.4 137.547 34.4V32.4ZM134.259 33.4541C133.469 34.1257 132.885 35.0122 132.484 36.0693L134.354 36.7787C134.657 35.9798 135.065 35.3943 135.555 34.9779L134.259 33.4541ZM132.477 36.0877C132.122 37.0806 131.9 38.1923 131.798 39.413L133.791 39.579C133.882 38.4957 134.075 37.5594 134.361 36.7603L132.477 36.0877ZM131.798 39.413C131.7 40.5932 131.651 41.789 131.651 43H133.651C133.651 41.843 133.698 40.7028 133.791 39.579L131.798 39.413ZM131.651 43C131.651 44.2423 131.7 45.454 131.798 46.635L133.791 46.469C133.698 45.346 133.651 44.1897 133.651 43H131.651ZM131.799 46.6374C131.901 47.8278 132.123 48.9339 132.474 49.95L134.364 49.298C134.075 48.4581 133.881 47.5162 133.791 46.4666L131.799 46.6374ZM132.488 49.9897C132.892 51.0165 133.476 51.8805 134.259 52.5459L135.555 51.0221C135.057 50.5995 134.65 50.0235 134.35 49.2583L132.488 49.9897ZM134.259 52.5459C135.133 53.2884 136.269 53.6 137.547 53.6V51.6C136.584 51.6 135.961 51.3676 135.555 51.0221L134.259 52.5459ZM166.109 34.888V35.888H167.109V34.888H166.109ZM162.749 35.128L162.573 34.1436L162.749 35.128ZM160.589 36.088L159.928 35.3382L160.589 36.088ZM159.389 38.056L158.433 37.7619L158.428 37.7789L158.424 37.796L159.389 38.056ZM159.053 51.256H158.053V52.1388L158.929 52.2483L159.053 51.256ZM164.045 51.88H165.045V50.9972L164.169 50.8877L164.045 51.88ZM164.045 55V56H165.045V55H164.045ZM150.893 55H149.893V56H150.893V55ZM150.893 52.216L150.635 51.2498L149.893 51.4477V52.216H150.893ZM154.493 51.256L154.751 52.2222L155.493 52.0243V51.256H154.493ZM154.493 34.84H155.493V34.0691L154.748 33.8729L154.493 34.84ZM150.845 33.88H149.845V34.6509L150.591 34.8471L150.845 33.88ZM150.845 31V30H149.845V31H150.845ZM157.853 31L158.823 30.7575L158.634 30H157.853V31ZM158.813 34.84L157.843 35.0825L158.628 38.2244L159.751 35.1866L158.813 34.84ZM166.109 30.52H167.109V29.52H166.109V30.52ZM166.109 33.888C164.731 33.888 163.548 33.9696 162.573 34.1436L162.925 36.1124C163.743 35.9664 164.799 35.888 166.109 35.888V33.888ZM162.573 34.1436C161.542 34.3277 160.64 34.7096 159.928 35.3382L161.251 36.8378C161.626 36.5064 162.164 36.2483 162.925 36.1124L162.573 34.1436ZM159.928 35.3382C159.22 35.9625 158.733 36.7892 158.433 37.7619L160.345 38.3501C160.558 37.6588 160.87 37.1735 161.251 36.8378L159.928 35.3382ZM158.424 37.796C158.168 38.7462 158.053 39.9313 158.053 41.32H160.053C160.053 40.0207 160.163 39.0298 160.355 38.316L158.424 37.796ZM158.053 41.32V51.256H160.053V41.32H158.053ZM158.929 52.2483L163.921 52.8723L164.169 50.8877L159.177 50.2637L158.929 52.2483ZM163.045 51.88V55H165.045V51.88H163.045ZM164.045 54H150.893V56H164.045V54ZM151.893 55V52.216H149.893V55H151.893ZM151.151 53.1822L154.751 52.2222L154.235 50.2898L150.635 51.2498L151.151 53.1822ZM155.493 51.256V34.84H153.493V51.256H155.493ZM154.748 33.8729L151.1 32.9129L150.591 34.8471L154.239 35.8071L154.748 33.8729ZM151.845 33.88V31H149.845V33.88H151.845ZM150.845 32H157.853V30H150.845V32ZM156.883 31.2425L157.843 35.0825L159.783 34.5975L158.823 30.7575L156.883 31.2425ZM159.751 35.1866C160.213 33.9381 160.993 33.0467 162.109 32.4618L161.181 30.6902C159.61 31.5133 158.502 32.7979 157.875 34.4933L159.751 35.1866ZM162.109 32.4618C163.299 31.8384 164.626 31.52 166.109 31.52V29.52C164.328 29.52 162.679 29.9056 161.181 30.6902L162.109 32.4618ZM165.109 30.52V34.888H167.109V30.52H165.109ZM167.608 52.12L167.351 51.1538L166.608 51.3517V52.12H167.608ZM171.208 51.16L171.466 52.1262L172.208 51.9283V51.16H171.208ZM171.208 22.6H172.208V21.8291L171.463 21.6329L171.208 22.6ZM167.56 21.64H166.56V22.4109L167.306 22.6071L167.56 21.64ZM167.56 18.76V17.76H166.56V18.76H167.56ZM175.768 18.76H176.768V17.76H175.768V18.76ZM175.768 40.936H174.768V43.8223L176.554 41.5547L175.768 40.936ZM183.592 31V30H183.107L182.807 30.3813L183.592 31ZM189.928 31H190.928V30H189.928V31ZM189.928 33.88L190.095 34.8661L190.928 34.7256V33.88H189.928ZM185.656 34.6L185.49 33.6139L185.136 33.6736L184.901 33.9451L185.656 34.6ZM180.664 40.36L179.909 39.7051L179.408 40.2826L179.834 40.9173L180.664 40.36ZM187.912 51.16L187.082 51.7173L187.294 52.0325L187.661 52.1279L187.912 51.16ZM191.608 52.12H192.608V51.3466L191.86 51.1521L191.608 52.12ZM191.608 55V56H192.608V55H191.608ZM185.272 55L184.444 55.5596L184.741 56H185.272V55ZM177.688 43.768L178.517 43.2084L177.78 42.1171L176.927 43.1199L177.688 43.768ZM175.768 46.024L175.007 45.3759L174.768 45.6561V46.024H175.768ZM175.768 51.16H174.768V51.8986L175.474 52.1158L175.768 51.16ZM178.888 52.12H179.888V51.3814L179.182 51.1642L178.888 52.12ZM178.888 55V56H179.888V55H178.888ZM167.608 55H166.608V56H167.608V55ZM167.866 53.0862L171.466 52.1262L170.951 50.1938L167.351 51.1538L167.866 53.0862ZM172.208 51.16V22.6H170.208V51.16H172.208ZM171.463 21.6329L167.815 20.6729L167.306 22.6071L170.954 23.5671L171.463 21.6329ZM168.56 21.64V18.76H166.56V21.64H168.56ZM167.56 19.76H175.768V17.76H167.56V19.76ZM174.768 18.76V40.936H176.768V18.76H174.768ZM176.554 41.5547L184.378 31.6187L182.807 30.3813L174.983 40.3173L176.554 41.5547ZM183.592 32H189.928V30H183.592V32ZM188.928 31V33.88H190.928V31H188.928ZM189.762 32.8939L185.49 33.6139L185.823 35.5861L190.095 34.8661L189.762 32.8939ZM184.901 33.9451L179.909 39.7051L181.42 41.0149L186.412 35.2549L184.901 33.9451ZM179.834 40.9173L187.082 51.7173L188.743 50.6027L181.495 39.8027L179.834 40.9173ZM187.661 52.1279L191.357 53.0879L191.86 51.1521L188.164 50.1921L187.661 52.1279ZM190.608 52.12V55H192.608V52.12H190.608ZM191.608 54H185.272V56H191.608V54ZM186.101 54.4404L178.517 43.2084L176.86 44.3276L184.444 55.5596L186.101 54.4404ZM176.927 43.1199L175.007 45.3759L176.53 46.6721L178.45 44.4161L176.927 43.1199ZM174.768 46.024V51.16H176.768V46.024H174.768ZM175.474 52.1158L178.594 53.0758L179.182 51.1642L176.062 50.2042L175.474 52.1158ZM177.888 52.12V55H179.888V52.12H177.888ZM178.888 54H167.608V56H178.888V54ZM168.608 55V52.12H166.608V55H168.608ZM198.731 55.144L198.974 54.1739L198.961 54.1707L198.948 54.1678L198.731 55.144ZM196.331 54.088L195.737 54.8922L195.748 54.9007L195.76 54.9089L196.331 54.088ZM194.507 51.928L193.619 52.3874L193.622 52.3938L193.626 52.4002L194.507 51.928ZM194.267 45.64L195.201 45.999L195.205 45.9873L194.267 45.64ZM195.803 43.432L196.457 44.1888H196.457L195.803 43.432ZM198.539 41.992L198.839 42.946L198.847 42.9434L198.855 42.9407L198.539 41.992ZM202.763 41.272L202.715 40.2731L202.706 40.2737L202.763 41.272ZM207.755 41.032L207.803 42.0308L208.755 41.9851V41.032H207.755ZM206.939 35.368L206.062 35.8489L206.069 35.861L206.939 35.368ZM201.755 34.312L202.202 35.2064L201.755 34.312ZM200.315 35.464L199.534 34.8393L199.521 34.8557L199.509 34.8726L200.315 35.464ZM199.499 37.096L198.546 36.7949L198.54 36.8115L198.536 36.8284L199.499 37.096ZM199.259 38.824V39.824H200.259V38.824H199.259ZM195.179 38.824H194.179V39.824H195.179V38.824ZM195.179 31V30H194.179V31H195.179ZM198.299 31L199.252 30.6974L199.031 30H198.299V31ZM199.259 34.024L198.306 34.3266L198.527 35.024H199.259V34.024ZM199.451 34.024V35.024H200.062L200.341 34.4803L199.451 34.024ZM202.043 31.336L202.49 32.2304L202.043 31.336ZM210.587 32.056L209.912 32.7941L209.923 32.8034L210.587 32.056ZM212.315 51.16H211.315V51.9283L212.057 52.1262L212.315 51.16ZM215.915 52.12H216.915V51.3517L216.173 51.1538L215.915 52.12ZM215.915 55V56H216.915V55H215.915ZM208.715 55L207.752 55.2676L207.955 56H208.715V55ZM207.755 51.544L208.719 51.2764L207.804 47.9842L206.799 51.2499L207.755 51.544ZM206.603 53.56L207.31 54.2671L206.603 53.56ZM204.923 54.76L205.351 55.6637L204.923 54.76ZM203.003 55.336L202.862 54.346L202.855 54.3471L203.003 55.336ZM205.019 51.544L205.515 52.4122L205.531 52.4035L205.545 52.3943L205.019 51.544ZM206.603 50.008L205.765 49.463L205.758 49.474L206.603 50.008ZM207.467 47.896L206.495 47.6626L206.491 47.6773L206.488 47.692L207.467 47.896ZM207.755 43.528H208.755V42.4702L207.699 42.5296L207.755 43.528ZM203.483 43.768L203.427 42.7696L203.421 42.7699L203.483 43.768ZM200.987 44.248L201.359 45.1765L200.987 44.248ZM199.451 45.256L200.158 45.9631L200.172 45.949L200.186 45.9343L199.451 45.256ZM198.635 46.6L197.681 46.3017L197.674 46.3219L197.669 46.3423L198.635 46.6ZM199.787 51.352L199.147 52.1202L199.167 52.1366L199.187 52.152L199.787 51.352ZM201.083 51.976L200.825 52.9422L200.862 52.9519L200.899 52.9589L201.083 51.976ZM201.275 54.48C200.568 54.48 199.802 54.381 198.974 54.1739L198.489 56.1141C199.452 56.355 200.382 56.48 201.275 56.48V54.48ZM198.948 54.1678C198.213 54.0044 197.533 53.7058 196.902 53.2671L195.76 54.9089C196.601 55.4942 197.521 55.8996 198.514 56.1202L198.948 54.1678ZM196.926 53.2838C196.321 52.8372 195.806 52.2358 195.389 51.4558L193.626 52.4002C194.168 53.4122 194.869 54.2508 195.737 54.8922L196.926 53.2838ZM195.395 51.4686C195.01 50.7232 194.787 49.7252 194.787 48.424H192.787C192.787 49.9388 193.044 51.2768 193.619 52.3874L195.395 51.4686ZM194.787 48.424C194.787 47.5047 194.931 46.7007 195.2 45.999L193.334 45.281C192.964 46.2433 192.787 47.2953 192.787 48.424H194.787ZM195.205 45.9873C195.466 45.2832 195.879 44.6876 196.457 44.1888L195.15 42.6752C194.319 43.3924 193.709 44.2688 193.329 45.2927L195.205 45.9873ZM196.457 44.1888C197.034 43.6901 197.816 43.2674 198.839 42.946L198.239 41.038C197.022 41.4206 195.98 41.9579 195.15 42.6752L196.457 44.1888ZM198.855 42.9407C199.899 42.5927 201.215 42.363 202.821 42.2703L202.706 40.2737C200.984 40.373 199.483 40.6233 198.223 41.0433L198.855 42.9407ZM202.811 42.2708L207.803 42.0308L207.707 40.0332L202.715 40.2732L202.811 42.2708ZM208.755 41.032V38.872H206.755V41.032H208.755ZM208.755 38.872C208.755 37.3653 208.457 36.0182 207.809 34.875L206.069 35.861C206.509 36.6378 206.755 37.6267 206.755 38.872H208.755ZM207.816 34.8872C207.039 33.4697 205.598 32.88 203.867 32.88V34.88C205.144 34.88 205.752 35.2823 206.062 35.8488L207.816 34.8872ZM203.867 32.88C202.924 32.88 202.057 33.0429 201.308 33.4176L202.202 35.2064C202.605 35.0051 203.147 34.88 203.867 34.88V32.88ZM201.308 33.4176C200.609 33.7671 200.013 34.2409 199.534 34.8393L201.096 36.0887C201.385 35.7271 201.749 35.4329 202.202 35.2064L201.308 33.4176ZM199.509 34.8726C199.088 35.4468 198.768 36.0902 198.546 36.7949L200.453 37.3971C200.614 36.8858 200.839 36.4412 201.122 36.0554L199.509 34.8726ZM198.536 36.8284C198.352 37.4882 198.259 38.1542 198.259 38.824H200.259C200.259 38.3418 200.326 37.8558 200.463 37.3636L198.536 36.8284ZM199.259 37.824H195.179V39.824H199.259V37.824ZM196.179 38.824V31H194.179V38.824H196.179ZM195.179 32H198.299V30H195.179V32ZM197.346 31.3026L198.306 34.3266L200.212 33.7214L199.252 30.6974L197.346 31.3026ZM199.259 35.024H199.451V33.024H199.259V35.024ZM200.341 34.4803C200.899 33.3916 201.621 32.6651 202.49 32.2304L201.596 30.4416C200.289 31.0949 199.283 32.1604 198.561 33.5677L200.341 34.4803ZM202.49 32.2304C203.416 31.7675 204.522 31.52 205.835 31.52V29.52C204.268 29.52 202.846 29.8165 201.596 30.4416L202.49 32.2304ZM205.835 31.52C207.722 31.52 209.033 31.9901 209.912 32.794L211.262 31.318C209.901 30.0739 208.044 29.52 205.835 29.52V31.52ZM209.923 32.8034C210.777 33.5624 211.315 34.8764 211.315 37H213.315C213.315 34.5796 212.702 32.5976 211.251 31.3086L209.923 32.8034ZM211.315 37V51.16H213.315V37H211.315ZM212.057 52.1262L215.657 53.0862L216.173 51.1538L212.573 50.1938L212.057 52.1262ZM214.915 52.12V55H216.915V52.12H214.915ZM215.915 54H208.715V56H215.915V54ZM209.679 54.7324L208.719 51.2764L206.792 51.8116L207.752 55.2676L209.679 54.7324ZM206.799 51.2499C206.582 51.9573 206.272 52.4774 205.896 52.8529L207.31 54.2671C207.959 53.6186 208.417 52.7947 208.711 51.8381L206.799 51.2499ZM205.896 52.8529C205.459 53.29 204.992 53.6209 204.495 53.8563L205.351 55.6637C206.07 55.3231 206.723 54.854 207.31 54.2671L205.896 52.8529ZM204.495 53.8563C203.979 54.1009 203.435 54.2641 202.862 54.3461L203.145 56.326C203.915 56.2159 204.652 55.9951 205.351 55.6637L204.495 53.8563ZM202.855 54.3471C202.252 54.4375 201.727 54.48 201.275 54.48V56.48C201.848 56.48 202.475 56.4265 203.151 56.3249L202.855 54.3471ZM202.571 53.12C203.664 53.12 204.66 52.901 205.515 52.4122L204.523 50.6758C204.034 50.955 203.398 51.12 202.571 51.12V53.12ZM205.545 52.3943C206.334 51.9064 206.976 51.2905 207.449 50.542L205.758 49.474C205.462 49.9415 205.049 50.3496 204.493 50.6937L205.545 52.3943ZM207.442 50.553C207.927 49.8061 208.262 48.9859 208.446 48.1L206.488 47.692C206.353 48.3421 206.111 48.9299 205.765 49.463L207.442 50.553ZM208.44 48.1294C208.649 47.2583 208.755 46.396 208.755 45.544H206.755C206.755 46.228 206.67 46.9337 206.495 47.6626L208.44 48.1294ZM208.755 45.544V43.528H206.755V45.544H208.755ZM207.699 42.5296L203.427 42.7696L203.539 44.7664L207.811 44.5264L207.699 42.5296ZM203.421 42.7699C202.337 42.8377 201.39 43.0098 200.616 43.3195L201.359 45.1765C201.864 44.9742 202.581 44.8263 203.546 44.7661L203.421 42.7699ZM200.616 43.3195C199.867 43.619 199.221 44.0311 198.716 44.5777L200.186 45.9343C200.449 45.6489 200.827 45.389 201.359 45.1765L200.616 43.3195ZM198.744 44.5489C198.247 45.0457 197.889 45.6335 197.681 46.3017L199.59 46.8983C199.701 46.5425 199.887 46.2343 200.158 45.9631L198.744 44.5489ZM197.669 46.3423C197.516 46.9139 197.443 47.5132 197.443 48.136H199.443C199.443 47.6708 199.498 47.2461 199.601 46.8577L197.669 46.3423ZM197.443 48.136C197.443 49.0332 197.585 49.8564 197.933 50.5512L199.722 49.6568C199.557 49.3276 199.443 48.8388 199.443 48.136H197.443ZM197.933 50.5512C198.241 51.1688 198.643 51.7 199.147 52.1202L200.427 50.5838C200.164 50.364 199.925 50.0632 199.722 49.6568L197.933 50.5512ZM199.187 52.152C199.677 52.5195 200.226 52.7824 200.825 52.9422L201.341 51.0098C200.98 50.9136 200.665 50.7605 200.387 50.552L199.187 52.152ZM200.899 52.9589C201.466 53.0653 202.024 53.12 202.571 53.12V51.12C202.158 51.12 201.724 51.0787 201.267 50.9931L200.899 52.9589ZM221.819 52.024V51.024H221.091L220.867 51.717L221.819 52.024ZM220.859 55V56H221.587L221.811 55.307L220.859 55ZM218.171 55H217.171V56H218.171V55ZM218.171 47.56V46.56H217.171V47.56H218.171ZM222.299 47.56H223.299V46.56H222.299V47.56ZM223.547 51.256L222.869 51.9908L222.883 52.0043L222.899 52.0172L223.547 51.256ZM229.019 51.688L229.523 52.5518L229.536 52.5441L229.549 52.536L229.019 51.688ZM229.307 47.464L228.643 48.2114L228.655 48.222L228.667 48.2322L229.307 47.464ZM227.147 46.12L226.728 47.028L226.735 47.0309L226.741 47.0338L227.147 46.12ZM224.411 44.968L224.05 45.9006L224.411 44.968ZM221.627 43.48L221.037 44.2874L221.044 44.2927L221.052 44.2978L221.627 43.48ZM219.515 41.176L218.658 41.6905L218.662 41.697L218.665 41.7034L219.515 41.176ZM219.227 34.312L218.32 33.8909L218.317 33.8983L218.313 33.9059L219.227 34.312ZM220.811 32.152L221.459 32.9139L221.47 32.9048L221.48 32.8953L220.811 32.152ZM222.923 30.904L222.618 29.9515L222.607 29.9553L222.923 30.904ZM226.859 30.712L227.102 29.7419L226.859 30.712ZM228.251 31.336L227.682 32.1582L227.696 32.1679L227.71 32.1772L228.251 31.336ZM229.931 34.024L228.943 34.18L229.077 35.024H229.931V34.024ZM230.123 34.024V35.024H230.855L231.076 34.3266L230.123 34.024ZM231.083 31V30H230.351L230.13 30.6974L231.083 31ZM233.771 31H234.771V30H233.771V31ZM233.771 38.488V39.488H234.771V38.488H233.771ZM229.691 38.488L228.691 38.5093L228.712 39.488H229.691V38.488ZM228.587 34.936L227.812 35.5677L228.587 34.936ZM223.595 34.408L222.91 33.6798L222.899 33.6902L222.888 33.7009L223.595 34.408ZM223.691 38.584L223.027 39.3314L223.691 38.584ZM225.803 39.976L225.356 40.8704L225.376 40.8806L225.397 40.8898L225.803 39.976ZM228.587 41.128L228.226 42.0606L228.236 42.0643L228.587 41.128ZM231.371 42.616L230.781 43.4234L230.799 43.4361L230.816 43.448L231.371 42.616ZM233.531 44.872L232.681 45.3994L232.686 45.4061L232.69 45.4128L233.531 44.872ZM233.771 51.592L234.678 52.0131L233.771 51.592ZM232.139 53.8L231.488 53.0407L231.479 53.0486L231.47 53.0567L232.139 53.8ZM229.883 55.048L229.599 54.0892L229.577 54.0956L229.556 54.103L229.883 55.048ZM225.563 55.288L225.346 56.2642L225.357 56.2665L225.563 55.288ZM223.979 54.664L223.465 55.5215L223.979 54.664ZM222.731 53.608L221.945 54.2258L221.956 54.2401L221.968 54.2539L222.731 53.608ZM222.011 52.024L222.99 51.818L222.823 51.024H222.011V52.024ZM220.867 51.717L219.907 54.693L221.811 55.307L222.771 52.331L220.867 51.717ZM220.859 54H218.171V56H220.859V54ZM219.171 55V47.56H217.171V55H219.171ZM218.171 48.56H222.299V46.56H218.171V48.56ZM221.299 47.56C221.299 49.396 221.748 50.9562 222.869 51.9908L224.225 50.5212C223.682 50.0198 223.299 49.116 223.299 47.56H221.299ZM222.899 52.0172C223.947 52.9099 225.185 53.36 226.571 53.36V51.36C225.653 51.36 224.876 51.0741 224.196 50.4948L222.899 52.0172ZM226.571 53.36C227.617 53.36 228.607 53.0863 229.523 52.5518L228.515 50.8242C227.896 51.1857 227.253 51.36 226.571 51.36V53.36ZM229.549 52.536C230.652 51.8467 231.171 50.7474 231.171 49.432H229.171C229.171 50.1646 228.922 50.5693 228.489 50.84L229.549 52.536ZM231.171 49.432C231.171 48.34 230.778 47.3881 229.947 46.6958L228.667 48.2322C228.988 48.4999 229.171 48.86 229.171 49.432H231.171ZM229.971 46.7166C229.303 46.1227 228.491 45.6229 227.553 45.2062L226.741 47.0338C227.531 47.3851 228.159 47.7813 228.643 48.2114L229.971 46.7166ZM227.566 45.212C226.712 44.818 225.781 44.4258 224.772 44.0354L224.05 45.9006C225.026 46.2781 225.918 46.654 226.728 47.028L227.566 45.212ZM224.772 44.0354C223.855 43.6806 223 43.223 222.203 42.6622L221.052 44.2978C221.983 44.953 222.983 45.4874 224.05 45.9006L224.772 44.0354ZM222.217 42.6726C221.495 42.1449 220.877 41.4741 220.365 40.6486L218.665 41.7034C219.305 42.7339 220.095 43.5991 221.037 44.2874L222.217 42.6726ZM220.373 40.6615C219.917 39.9015 219.651 38.863 219.651 37.48H217.651C217.651 39.105 217.962 40.5305 218.658 41.6905L220.373 40.6615ZM219.651 37.48C219.651 36.3293 219.829 35.4204 220.141 34.7181L218.313 33.9059C217.857 34.9316 217.651 36.1347 217.651 37.48H219.651ZM220.134 34.7331C220.5 33.9453 220.947 33.3493 221.459 32.9139L220.163 31.3901C219.396 32.0427 218.786 32.8867 218.32 33.8909L220.134 34.7331ZM221.48 32.8953C222.024 32.4053 222.61 32.0625 223.239 31.8527L222.607 29.9553C221.7 30.2575 220.878 30.7467 220.142 31.4087L221.48 32.8953ZM223.228 31.8564C223.939 31.629 224.62 31.52 225.275 31.52V29.52C224.394 29.52 223.508 29.667 222.618 29.9516L223.228 31.8564ZM225.275 31.52C225.74 31.52 226.186 31.5746 226.617 31.6821L227.102 29.7419C226.508 29.5934 225.898 29.52 225.275 29.52V31.52ZM226.617 31.6821C227.017 31.7822 227.369 31.9417 227.682 32.1582L228.82 30.5138C228.301 30.1543 227.725 29.8978 227.102 29.7419L226.617 31.6821ZM227.71 32.1772C228.038 32.3877 228.303 32.6533 228.514 32.9808L230.196 31.8992C229.831 31.3307 229.36 30.8603 228.792 30.4948L227.71 32.1772ZM228.514 32.9808C228.716 33.2953 228.866 33.6878 228.943 34.18L230.919 33.868C230.805 33.1442 230.57 32.4807 230.196 31.8992L228.514 32.9808ZM229.931 35.024H230.123V33.024H229.931V35.024ZM231.076 34.3266L232.036 31.3026L230.13 30.6974L229.17 33.7214L231.076 34.3266ZM231.083 32H233.771V30H231.083V32ZM232.771 31V38.488H234.771V31H232.771ZM233.771 37.488H229.691V39.488H233.771V37.488ZM230.691 38.4667C230.656 36.8174 230.249 35.3928 229.362 34.3043L227.812 35.5677C228.333 36.2072 228.662 37.1506 228.691 38.5093L230.691 38.4667ZM229.362 34.3043C228.45 33.1841 227.193 32.64 225.707 32.64V34.64C226.654 34.64 227.317 34.9599 227.812 35.5677L229.362 34.3043ZM225.707 32.64C224.631 32.64 223.668 32.966 222.91 33.6798L224.28 35.1362C224.61 34.826 225.055 34.64 225.707 34.64V32.64ZM222.888 33.7009C222.153 34.436 221.827 35.3977 221.827 36.472H223.827C223.827 35.8183 224.013 35.404 224.302 35.1151L222.888 33.7009ZM221.827 36.472C221.827 37.6025 222.202 38.5981 223.027 39.3314L224.355 37.8366C224.028 37.5459 223.827 37.1335 223.827 36.472H221.827ZM223.027 39.3314C223.68 39.9123 224.461 40.423 225.356 40.8704L226.25 39.0816C225.481 38.697 224.854 38.2797 224.355 37.8366L223.027 39.3314ZM225.397 40.8898C226.278 41.2812 227.221 41.6714 228.226 42.0606L228.948 40.1954C227.969 39.8166 227.057 39.4388 226.209 39.0622L225.397 40.8898ZM228.236 42.0643C229.18 42.4184 230.027 42.8722 230.781 43.4234L231.961 41.8086C231.051 41.1438 230.042 40.6056 228.938 40.1917L228.236 42.0643ZM230.816 43.448C231.555 43.9406 232.177 44.5864 232.681 45.3994L234.381 44.3446C233.733 43.3016 232.915 42.4434 231.926 41.784L230.816 43.448ZM232.69 45.4128C233.13 46.0969 233.395 47.0731 233.395 48.424H235.395C235.395 46.8309 235.085 45.4391 234.372 44.3312L232.69 45.4128ZM233.395 48.424C233.395 49.5274 233.206 50.4337 232.864 51.1709L234.678 52.0131C235.168 50.9583 235.395 49.7526 235.395 48.424H233.395ZM232.864 51.1709C232.501 51.9523 232.04 52.5681 231.488 53.0407L232.79 54.5593C233.583 53.8799 234.209 53.0237 234.678 52.0131L232.864 51.1709ZM231.47 53.0567C230.946 53.5285 230.327 53.8735 229.599 54.0892L230.167 56.0068C231.167 55.7105 232.052 55.2235 232.808 54.5433L231.47 53.0567ZM229.556 54.103C228.827 54.3553 228.09 54.48 227.339 54.48V56.48C228.317 56.48 229.275 56.3167 230.21 55.993L229.556 54.103ZM227.339 54.48C226.838 54.48 226.315 54.4243 225.769 54.3095L225.357 56.2665C226.028 56.4077 226.689 56.48 227.339 56.48V54.48ZM225.78 54.3118C225.303 54.2059 224.877 54.0363 224.494 53.8065L223.465 55.5215C224.042 55.8677 224.671 56.1141 225.346 56.2642L225.78 54.3118ZM224.494 53.8065C224.105 53.5733 223.774 53.2921 223.495 52.9621L221.968 54.2539C222.392 54.7559 222.893 55.1786 223.465 55.5215L224.494 53.8065ZM223.517 52.9902C223.269 52.6735 223.089 52.2896 222.99 51.818L221.033 52.23C221.189 52.9744 221.49 53.6465 221.945 54.2258L223.517 52.9902ZM222.011 51.024H221.819V53.024H222.011V51.024ZM236.842 31.96L236.584 30.9938L235.842 31.1917V31.96H236.842ZM240.442 31L240.699 31.9662L241.331 31.7977L241.43 31.1509L240.442 31ZM241.402 24.712V23.712H240.543L240.413 24.5611L241.402 24.712ZM245.002 24.712H246.002V23.712H245.002V24.712ZM245.002 31H244.002V32H245.002V31ZM249.514 31H250.514V30H249.514V31ZM249.514 34.504V35.504H250.514V34.504H249.514ZM245.002 34.504V33.504H244.002V34.504H245.002ZM245.53 50.776L244.644 51.24L245.53 50.776ZM248.602 51.64L248.775 52.6248L248.602 51.64ZM250.138 51.256L251.074 50.9049L250.736 50.0026L249.821 50.3073L250.138 51.256ZM251.146 53.944L251.828 54.6751L252.317 54.2189L252.082 53.5929L251.146 53.944ZM249.034 55.048L248.737 54.0929L248.728 54.096L249.034 55.048ZM241.786 53.608L240.966 54.1815L240.975 54.1932L240.983 54.2047L241.786 53.608ZM240.442 34.504H241.442V33.504H240.442V34.504ZM236.842 34.504H235.842V35.504H236.842V34.504ZM237.099 32.9262L240.699 31.9662L240.184 30.0338L236.584 30.9938L237.099 32.9262ZM241.43 31.1509L242.39 24.8629L240.413 24.5611L239.453 30.8491L241.43 31.1509ZM241.402 25.712H245.002V23.712H241.402V25.712ZM244.002 24.712V31H246.002V24.712H244.002ZM245.002 32H249.514V30H245.002V32ZM248.514 31V34.504H250.514V31H248.514ZM249.514 33.504H245.002V35.504H249.514V33.504ZM244.002 34.504V47.56H246.002V34.504H244.002ZM244.002 47.56C244.002 49.0687 244.175 50.3447 244.644 51.24L246.415 50.312C246.18 49.8633 246.002 48.9953 246.002 47.56H244.002ZM244.644 51.24C244.895 51.719 245.25 52.1205 245.722 52.3958C246.191 52.6693 246.716 52.784 247.258 52.784V50.784C246.999 50.784 246.837 50.7307 246.729 50.6682C246.625 50.6075 246.517 50.505 246.415 50.312L244.644 51.24ZM247.258 52.784C247.691 52.784 248.202 52.7259 248.775 52.6248L248.428 50.6552C247.913 50.7461 247.528 50.784 247.258 50.784V52.784ZM248.775 52.6248C249.363 52.521 249.923 52.3815 250.454 52.2047L249.821 50.3073C249.392 50.4505 248.928 50.567 248.428 50.6552L248.775 52.6248ZM249.201 51.6071L250.209 54.2951L252.082 53.5929L251.074 50.9049L249.201 51.6071ZM250.463 53.2129C250.133 53.5209 249.585 53.8299 248.737 54.0929L249.33 56.0031C250.339 55.6901 251.198 55.2631 251.828 54.6751L250.463 53.2129ZM248.728 54.096C247.936 54.3505 247.095 54.48 246.202 54.48V56.48C247.292 56.48 248.34 56.3215 249.34 56L248.728 54.096ZM246.202 54.48C244.399 54.48 243.273 53.9331 242.588 53.0113L240.983 54.2047C242.154 55.7789 243.972 56.48 246.202 56.48V54.48ZM242.605 53.0345C241.886 52.0081 241.442 50.2445 241.442 47.56H239.442C239.442 50.3795 239.893 52.6479 240.966 54.1815L242.605 53.0345ZM241.442 47.56V34.504H239.442V47.56H241.442ZM240.442 33.504H236.842V35.504H240.442V33.504ZM237.842 34.504V31.96H235.842V34.504H237.842Z" fill="#023020" mask="url(#path-1-outside-1_16_70)"/>
<line y1="-2.5" x2="38.9557" y2="-2.5" transform="matrix(0.0406329 0.999174 -0.999988 0.00487799 1 2.82232)" stroke="#023020" stroke-width="5"/>
<line y1="-2.5" x2="83.8325" y2="-2.5" transform="matrix(0.557004 0.83051 -0.99678 0.0801903 1 2.82232)" stroke="#023020" stroke-width="5"/>
<line y1="-2.5" x2="45.8887" y2="-2.5" transform="matrix(-0.477222 -0.878783 0.913055 -0.407836 51.2395 42.3262)" stroke="#023020" stroke-width="5"/>
<line y1="-2.5" x2="56.1546" y2="-2.5" transform="matrix(-0.817452 -0.575997 0.985817 -0.167821 51.6523 73.2684)" stroke="#023020" stroke-width="5"/>
<line y1="-2.5" x2="41.3602" y2="-2.5" transform="matrix(0.631467 -0.775402 0.995263 0.0972233 52.4437 73.8166)" stroke="#023020" stroke-width="5"/>
<line y1="-2.5" x2="48.9032" y2="-2.5" transform="matrix(-0.582619 -0.812746 0.996323 -0.0856721 79.3528 41.7458)" stroke="#023020" stroke-width="5"/>
<line y1="-2.5" x2="39.5035" y2="-2.5" transform="matrix(0.0400695 0.999197 -0.999988 0.00481024 25.1727 2)" stroke="#023020" stroke-width="5"/>
<line y1="-2.5" x2="71.56" y2="-2.5" transform="matrix(0.0221197 0.999755 -0.999996 0.00265395 46.9037 2.27411)" stroke="#023020" stroke-width="5"/>
</svg>
