<svg width="80" height="74" viewBox="0 0 80 74" fill="none" xmlns="http://www.w3.org/2000/svg">
<line y1="-2.5" x2="38.9557" y2="-2.5" transform="matrix(0.0406329 0.999174 -0.999988 0.00487799 1 1.82232)" stroke="#023020" stroke-width="5"/>
<line y1="-2.5" x2="83.8325" y2="-2.5" transform="matrix(0.557004 0.83051 -0.99678 0.0801903 1 1.82232)" stroke="#023020" stroke-width="5"/>
<line y1="-2.5" x2="45.8887" y2="-2.5" transform="matrix(-0.477222 -0.878783 0.913055 -0.407836 51.2395 41.3262)" stroke="#023020" stroke-width="5"/>
<line y1="-2.5" x2="56.1546" y2="-2.5" transform="matrix(-0.817452 -0.575997 0.985817 -0.167821 51.6523 72.2684)" stroke="#023020" stroke-width="5"/>
<line y1="-2.5" x2="41.3602" y2="-2.5" transform="matrix(0.631467 -0.775402 0.995263 0.0972233 52.4437 72.8166)" stroke="#023020" stroke-width="5"/>
<line y1="-2.5" x2="48.9032" y2="-2.5" transform="matrix(-0.582619 -0.812746 0.996323 -0.0856721 79.3528 40.7458)" stroke="#023020" stroke-width="5"/>
<line y1="-2.5" x2="39.5035" y2="-2.5" transform="matrix(0.0400695 0.999197 -0.999988 0.00481024 25.1727 1)" stroke="#023020" stroke-width="5"/>
<line y1="-2.5" x2="71.56" y2="-2.5" transform="matrix(0.0221197 0.999755 -0.999996 0.00265395 46.9037 1.27411)" stroke="#023020" stroke-width="5"/>
</svg>
